<svg aria-hidden="true" style="position:absolute;width:0;height:0" xmlns="http://www.w3.org/2000/svg" overflow="hidden"><defs><symbol id="icon-close-black" viewBox="0 0 32 32"><path d="M26.667 7.303l-1.97-1.97-7.808 7.808-7.808-7.808-1.97 1.97 7.808 7.808-7.808 7.808 1.97 1.97 7.808-7.808 7.808 7.808 1.97-1.97-7.808-7.808 7.808-7.808z"/></symbol><symbol id="icon-logo-4" viewBox="0 0 53 32"><path fill="var(--color1, #afb1b8)" d="M10.291 8.051h-.002c-1.42 0-2.57 1.121-2.57 2.505v.002c0 1.383 1.151 2.505 2.57 2.505h.002c1.419 0 2.57-1.121 2.57-2.505v-.002c0-1.383-1.151-2.505-2.57-2.505zM29.262 7.25c-.004-1.921-.789-3.763-2.183-5.122S23.796.004 21.824 0c-1.972.004-3.863.768-5.257 2.127s-2.18 3.201-2.184 5.123v10.595S29.26 16.23 29.262 7.252V7.25zM2.51 21.322c.004 1.337.55 2.618 1.52 3.563s2.284 1.478 3.656 1.482c1.372-.004 2.686-.537 3.656-1.482s1.517-2.226 1.521-3.562v-7.372s-10.352 1.124-10.352 7.37zm5.176 1.321c-.268 0-.53-.077-.753-.223s-.397-.351-.499-.593-.129-.507-.077-.763c.052-.256.181-.492.371-.676s.431-.311.694-.361c.263-.051.535-.025.783.075s.459.269.608.486c.149.217.228.473.228.734.001.174-.034.346-.102.507s-.168.307-.293.43c-.126.123-.276.221-.44.288s-.341.101-.52.101v-.005zM18.252 21.823h-1.059v1.094h-.551v-2.676h1.743v.447h-1.191v.691h1.059v.445zm2.651-.183c0 .263-.047.494-.14.693s-.227.352-.401.46c-.173.108-.371.162-.596.162-.222 0-.42-.053-.594-.16s-.309-.259-.404-.456c-.096-.199-.144-.426-.145-.684v-.132c0-.263.047-.495.142-.695.096-.201.23-.355.403-.461.174-.108.373-.162.596-.162s.421.054.594.162c.174.107.308.26.403.461.096.2.143.431.143.693v.119zm-.559-.122c0-.281-.05-.494-.151-.64s-.244-.219-.43-.219c-.185 0-.328.072-.428.217-.101.143-.151.354-.153.632v.131c0 .273.05.485.151.636s.245.226.434.226c.185 0 .327-.072.426-.217.099-.146.15-.358.151-.636v-.131zm2.347.697c0-.104-.037-.184-.11-.239-.074-.056-.206-.115-.397-.176-.191-.063-.343-.124-.454-.184-.304-.164-.456-.385-.456-.664 0-.145.04-.273.121-.386.082-.114.199-.203.351-.267.153-.064.325-.096.515-.096.191 0 .362.035.511.105.15.069.265.166.347.292.083.126.125.27.125.43h-.551c0-.123-.039-.218-.116-.285-.077-.069-.186-.103-.325-.103-.135 0-.24.029-.314.086-.075.056-.112.131-.112.224 0 .087.043.16.131.219.088.059.218.114.388.165.314.094.542.211.686.351s.215.314.215.522c0 .232-.088.414-.263.546-.175.131-.411.197-.708.197-.206 0-.393-.037-.562-.112-.169-.076-.298-.18-.388-.311-.088-.131-.132-.283-.132-.456h.553c0 .295.176.443.529.443.131 0 .233-.026.307-.079.074-.054.11-.129.11-.224zm2.943-1.527h-.82v2.23h-.551v-2.23h-.809v-.447h2.18v.447zm1.927 1.069h-1.059v.717h1.243v.443h-1.794v-2.676h1.79v.447h-1.239v.638h1.059v.432zm1.498.181h-.439v.98h-.551v-2.676h.994c.316 0 .56.07.732.211s.257.34.257.597c0 .183-.04.335-.119.458-.078.121-.198.218-.358.29l.579 1.094v.026h-.592l-.502-.98zm-.439-.447h.445c.138 0 .246-.035.322-.105.076-.071.114-.169.114-.292 0-.126-.036-.226-.108-.298-.071-.072-.181-.108-.329-.108h-.443v.803zm3.342.483v.943h-.551v-2.676h1.044c.201 0 .377.037.529.11.153.074.271.178.353.314.082.135.123.289.123.461 0 .262-.09.469-.27.621-.179.151-.427.226-.744.226h-.483zm0-.446h.493c.146 0 .257-.034.333-.103.077-.069.116-.167.116-.294 0-.131-.039-.237-.116-.318s-.184-.123-.32-.125h-.506v.84zm3.488.229h-1.059v.717h1.243v.443H33.84v-2.676h1.79v.447h-1.239v.638h1.059v.432zm2.559-1.069h-.82v2.23h-.551v-2.23h-.809v-.447h2.18v.447zm1.927 1.069h-1.059v.717h1.243v.443h-1.794v-2.676h1.79v.447h-1.239v.638h1.059v.432zm1.498.181h-.439v.98h-.551v-2.676h.994c.316 0 .56.07.732.211s.257.34.257.597c0 .183-.04.335-.119.458-.078.121-.198.218-.358.29l.579 1.094v.026h-.592l-.502-.98zm-.439-.447h.445c.138 0 .246-.035.322-.105.076-.071.114-.169.114-.292 0-.126-.036-.226-.108-.298-.071-.072-.181-.108-.329-.108h-.443v.803zm3.24.724c0-.104-.037-.184-.11-.239-.074-.056-.206-.115-.397-.176-.191-.063-.343-.124-.454-.184-.304-.164-.456-.385-.456-.664 0-.145.04-.273.121-.386.082-.114.199-.203.351-.267.153-.064.325-.096.515-.096.191 0 .361.035.511.105.15.069.265.166.347.292.083.126.125.27.125.43h-.551c0-.123-.039-.218-.116-.285-.077-.069-.186-.103-.325-.103-.135 0-.24.029-.314.086-.075.056-.112.131-.112.224 0 .087.044.16.13.219.088.059.218.114.388.165.314.094.542.211.686.351s.215.314.215.522c0 .232-.088.414-.263.546-.175.131-.411.197-.708.197-.206 0-.393-.037-.563-.112-.169-.076-.298-.18-.388-.311-.088-.131-.132-.283-.132-.456h.553c0 .295.176.443.529.443.131 0 .233-.026.307-.079.074-.054.11-.129.11-.224z"/></symbol><symbol id="icon-logo-2" viewBox="0 0 32 32"><path fill="var(--color1, #afb1b8)" d="M14.14 1.806h.084c.156 0 .324.016.49.03.734.052 1.463.162 2.179.329V.403a12.97 12.97 0 00-2.25-.358c-.288-.022-.595-.036-.909-.044h-.263c-1.523.006-3.039.201-4.515.582-1.68.419-3.293 1.075-4.79 1.948v17.475a19.4837 19.4837 0 014.566-1.779c1.256-.32 2.539-.517 3.833-.588h.051c.216-.011.433-.017.655-.019v-1.79c-1.681.022-3.353.244-4.982.662-.602.157-1.185.325-1.731.513l-.623.211V3.591l.266-.128a17.4089 17.4089 0 016.471-1.651.523.523 0 01.056 0c.248-.013.497-.019.741-.019h.28c.129.003.258.006.388.014z"/><path fill="var(--color1, #afb1b8)" d="M18.53 3.651c-.409 0-.814-.014-1.205-.044-.467-.034-.947-.091-1.401-.167-.277-.047-.55-.103-.814-.164v17.275c1.12.277 2.271.413 3.425.404 1.523-.006 3.039-.201 4.515-.581 1.68-.42 3.294-1.075 4.792-1.948V1.263a19.5796 19.5796 0 01-4.564 1.781c-1.551.398-3.145.603-4.747.609zm6.907.299l.623-.21v13.63l-.266.128c-1.021.486-2.087.869-3.184 1.144-1.331.344-2.7.522-4.074.527-.411 0-.819-.017-1.214-.052l-.427-.038V5.062l.497.033c.361.023.735.034 1.141.034 1.745-.006 3.482-.229 5.173-.663.581-.153 1.158-.325 1.731-.518zM5.377 25.977c-.09-.093-.197-.166-.317-.214s-.247-.071-.376-.066c-.137-.002-.273.024-.4.075-.117.046-.222.116-.311.205s-.156.196-.201.313c-.049.123-.073.254-.072.387v2.335c-.006.165.026.328.092.479.055.12.135.226.234.313.093.079.203.135.321.166.114.032.231.048.349.049a.891.891 0 00.377-.081.972.972 0 00.311-.216c.087-.091.156-.197.204-.313a.951.951 0 00.075-.372v-.261h-.61v.208c.002.071-.01.142-.036.208a.359.359 0 01-.089.131.3653.3653 0 01-.128.067.4246.4246 0 01-.128.022c-.054.006-.11-.002-.16-.024s-.094-.057-.126-.101a.5482.5482 0 01-.081-.313v-2.177a.7375.7375 0 01.075-.349c.032-.049.077-.089.129-.114s.112-.034.17-.027c.053-.002.105.009.152.032s.089.057.12.099c.068.09.104.2.101.313v.202h.604v-.238c.001-.14-.024-.278-.075-.408a.9618.9618 0 00-.204-.329zM9.002 25.95c-.195-.164-.44-.255-.694-.257-.124 0-.248.023-.364.066a.9612.9612 0 00-.559.518c-.061.143-.092.297-.089.452v2.239c-.004.158.026.314.089.459.055.12.136.227.237.313a.939.939 0 00.322.197c.117.043.24.065.364.066s.248-.023.364-.066c.121-.044.233-.111.33-.197a.9483.9483 0 00.23-.313c.063-.145.093-.301.089-.459v-2.239c.003-.155-.027-.31-.089-.452a1.015 1.015 0 00-.23-.327zm-.285 3.019c.005.06-.003.12-.024.176s-.054.107-.097.148a.4453.4453 0 01-.574 0c-.043-.041-.076-.092-.097-.148s-.029-.116-.024-.176V26.73c-.005-.06.003-.12.024-.176s.054-.107.097-.148a.4453.4453 0 01.574 0c.043.041.076.092.097.148s.029.116.024.176v2.239zM13.764 29.969V25.73h-.587l-.771 2.244h-.011l-.777-2.244h-.581v4.239h.606V27.39h.011l.593 1.823h.302l.598-1.823h.011v2.579h.606zM17.205 26.027a.8439.8439 0 00-.342-.232c-.142-.046-.29-.068-.439-.066h-.9v4.239h.604v-1.656h.311c.188.009.376-.031.545-.116a.8824.8824 0 00.332-.324c.07-.113.117-.238.139-.369.024-.16.035-.321.033-.482a2.421 2.421 0 00-.059-.606.8977.8977 0 00-.223-.39zm-.311 1.292a.5472.5472 0 01-.056.221.346.346 0 01-.156.149.619.619 0 01-.285.053h-.276v-1.441h.311c.094-.005.187.014.273.053.062.036.112.091.142.157.033.074.051.155.053.236v.282c0 .099.006.2 0 .291h-.006zM20.066 25.73h-.495l-.934 4.239h.604l.177-.911h.823l.177.911h.604l-.957-4.239zm-.557 2.751l.297-1.537h.011l.296 1.537h-.604zM23.969 28.284h-.011l-.912-2.554h-.581v4.239h.604V27.42h.012l.923 2.549h.568V25.73h-.604v2.554zM27.66 25.73l-.486 1.685h-.012l-.486-1.685h-.64l.83 2.447v1.792h.604v-1.792l.83-2.447h-.64zM3.692 31.166h.291v.817h.198v-.817h.29v-.167h-.778v.167zM6.14 30.998l-.381.984h.21l.081-.224h.392l.084.224h.215l-.391-.984h-.21zm-.032.595l.134-.365.134.365h-.268zM8.559 31.62h.227v.127a.381.381 0 01-.233.083c-.04.002-.079-.005-.116-.021s-.068-.041-.093-.072a.4112.4112 0 01-.073-.257c0-.219.095-.329.283-.329.05-.005.099.008.14.037s.07.071.082.12l.195-.038c-.042-.192-.181-.289-.417-.289a.4945.4945 0 00-.344.127c-.05.049-.088.108-.112.174s-.034.135-.029.205c-.006.135.039.267.126.369a.4774.4774 0 00.374.144c.154.004.304-.052.417-.157v-.388h-.427v.166zM11.029 30.998h-.199v.984h.69v-.167h-.49v-.817zM13.118 30.998h-.199v.984h.199v-.984zM15.161 31.656l-.403-.657h-.193v.984h.185v-.643l.395.643h.198v-.984h-.182v.657zM17.007 31.549h.49v-.167h-.49v-.216h.528v-.167h-.727v.984h.747v-.167h-.548v-.266zM21.484 31.387h-.388v-.388h-.198v.984h.198v-.43h.388v.43h.198v-.984h-.198v.388zM23.342 31.549h.492v-.167h-.492v-.216h.529v-.167h-.727v.984h.746v-.167h-.548v-.266zM25.86 31.549c.171-.027.258-.117.258-.274.005-.042-.001-.084-.018-.123s-.044-.072-.078-.096a.5532.5532 0 00-.288-.058h-.417v.984h.198v-.412h.039c.042-.003.084.005.123.022.029.018.053.043.07.072l.215.313h.237l-.12-.192a.6851.6851 0 00-.218-.236zm-.199-.136h-.146v-.247h.156c.068-.005.136.002.201.023.014.013.026.029.033.046s.011.037.01.056a.1283.1283 0 01-.052.098.5466.5466 0 01-.201.023zM27.76 31.549h.49v-.167h-.49v-.216h.529v-.167h-.729v.984h.747v-.167h-.548v-.266z"/></symbol><symbol id="icon-logo-3" viewBox="0 0 32 32"><path fill="var(--color1, #afb1b8)" d="M5.466 31.103a.0876.0876 0 01.059.025l.153.161c-.119.13-.266.234-.431.305-.193.077-.401.115-.611.109a1.496 1.496 0 01-.574-.102 1.2495 1.2495 0 01-.433-.288c-.123-.129-.218-.28-.279-.445-.067-.184-.1-.377-.098-.571-.003-.195.033-.39.105-.573.067-.166.168-.317.297-.445.131-.126.287-.224.459-.29.189-.07.389-.104.591-.102.188-.004.375.027.549.093.152.063.291.15.412.257l-.128.171a.122.122 0 01-.033.031.0844.0844 0 01-.052.013.1234.1234 0 01-.056-.018l-.069-.046-.096-.058a.9778.9778 0 00-.128-.057 1.311 1.311 0 00-.174-.046 1.238 1.238 0 00-.228-.018c-.146-.002-.29.024-.425.077a.9597.9597 0 00-.333.215.9965.9965 0 00-.216.343c-.054.145-.08.298-.078.452-.002.156.024.312.078.46.047.126.119.242.212.341.088.093.196.165.318.212.125.049.259.074.394.073.078.001.156-.004.234-.015a.8691.8691 0 00.354-.122c.054-.034.104-.072.151-.113.02-.018.046-.028.073-.029zM9.888 30.296c.002.194-.033.386-.103.567-.062.165-.161.315-.288.44s-.282.224-.452.289c-.375.136-.789.136-1.164 0a1.334 1.334 0 01-.45-.29 1.2812 1.2812 0 01-.291-.445 1.6103 1.6103 0 010-1.136c.065-.166.164-.317.291-.447.128-.121.281-.216.45-.279.374-.139.79-.139 1.164 0 .17.066.324.165.452.29.126.127.224.276.289.44.071.183.106.376.103.571zm-.402 0c.003-.155-.022-.309-.073-.456a.9543.9543 0 00-.205-.341.8976.8976 0 00-.323-.215c-.272-.1-.574-.1-.846 0a.9015.9015 0 00-.324.215.937.937 0 00-.207.341c-.097.297-.097.615 0 .912.043.126.114.242.207.341.09.093.2.166.324.213.273.097.573.097.846 0 .123-.047.234-.12.323-.213a.9543.9543 0 00.205-.341c.051-.147.076-.301.073-.456zM12.905 30.774l.04.102c.015-.036.029-.069.044-.102a.9325.9325 0 01.05-.1l.978-1.694c.019-.029.036-.047.056-.053a.2169.2169 0 01.08-.009h.289v2.755h-.343v-2.026-.086a.7528.7528 0 010-.095l-.984 1.718c-.012.026-.033.047-.058.063s-.054.023-.084.023h-.056a.154.154 0 01-.141-.086l-1.013-1.729V31.668h-.331v-2.75h.289c.027-.002.054.002.08.009.024.011.043.03.054.053l.999 1.696c.02.031.036.064.05.098zM16.586 30.638v1.032h-.383v-2.752h.854c.161-.003.322.017.477.06.124.033.239.092.337.171a.699.699 0 01.191.27c.045.112.067.232.065.352.002.121-.022.24-.071.352-.046.106-.117.2-.207.275a.9358.9358 0 01-.339.182c-.149.045-.305.067-.461.064l-.463-.007zm0-.296h.463c.101.001.201-.013.297-.042a.6167.6167 0 00.214-.119.477.477 0 00.13-.182.5789.5789 0 00.046-.232c.004-.076-.009-.153-.038-.224s-.075-.135-.134-.188a.7662.7662 0 00-.515-.148h-.463v1.134zM21.731 31.673h-.302a.133.133 0 01-.084-.026.1643.1643 0 01-.05-.064l-.26-.666h-1.307l-.27.666a.1451.1451 0 01-.048.062.1318.1318 0 01-.086.027h-.302l1.148-2.756h.398l1.164 2.756zm-1.895-1.023h1.08l-.456-1.122a1.8282 1.8282 0 01-.086-.259l-.044.144c-.013.044-.029.084-.042.117l-.452 1.12zM23.385 28.931a.16.16 0 01.057.049l1.675 2.077v-.097V28.918h.343v2.756h-.191a.1733.1733 0 01-.078-.016.2003.2003 0 01-.061-.051l-1.673-2.075c.002.032.002.063 0 .095v2.048h-.343v-2.756h.203a.163.163 0 01.069.013zM28.281 30.577v1.094h-.383v-1.094l-1.059-1.66h.343c.029-.002.059.007.082.024.021.018.038.039.052.062l.662 1.071c.027.046.05.088.069.128s.034.078.048.117l.05-.119c.019-.043.04-.085.065-.126l.653-1.078c.014-.021.03-.041.05-.058a.1164.1164 0 01.082-.027h.346l-1.06 1.667zM12.715 24.293c.167.02.335.036.505.051 2.583-1.101 4.768-2.902 6.282-5.18s2.29-4.929 2.231-7.624l-2.846-2.712c.579 2.869.308 5.836-.782 8.567s-2.956 5.12-5.389 6.898z"/><path fill="var(--color1, #afb1b8)" d="M11.699 24.167l.077.015c2.6-1.772 4.583-4.247 5.691-7.104s1.292-5.965.526-8.922l-4.054-3.862c1.64 3.175 2.3 6.728 1.903 10.246s-1.833 6.857-4.143 9.628zM25.448 14.725c-.689 2.961-2.362 5.632-4.77 7.616-.703.582-1.462 1.101-2.266 1.55 1.961-.549 3.764-1.52 5.269-2.838s2.672-2.947 3.412-4.763l-1.644-1.565z"/><path fill="var(--color1, #afb1b8)" d="M24.803 14.289l-2.341-2.23c-.045 2.543-.803 5.028-2.197 7.197s-3.372 3.943-5.729 5.137h.011c.525 0 1.05-.03 1.572-.089 2.203-.857 4.148-2.219 5.664-3.967s2.553-3.825 3.021-6.047zM12.038 2.664L9.245 0C6.748.919 4.601 2.535 3.084 4.636S.752 9.225.744 11.775c.009 2.818 1.005 5.552 2.829 7.77s4.372 3.793 7.242 4.476c2.561-2.973 4.061-6.647 4.281-10.488s-.851-7.648-3.058-10.869zM31.256 13.878c-.01-3.343-1.409-6.546-3.89-8.91s-5.843-3.696-9.352-3.706c-1.621-.002-3.229.283-4.741.841l17.099 16.291c.585-1.44.885-2.971.884-4.515z"/></symbol><symbol id="icon-logo-5" viewBox="0 0 32 32"><path fill="var(--color1, #afb1b8)" d="M2.434 24.557a.852.852 0 01.188.548c.006.13-.016.26-.067.379s-.127.227-.224.313a1.258 1.258 0 01-.845.253H0v-3.474h1.455c.287-.019.572.062.806.231a.7999.7999 0 01.282.65c.009.192-.051.38-.169.531a.784.784 0 01-.443.271c.197.036.375.141.502.297zm-1.743-.524h.622a.587.587 0 00.396-.115c.047-.043.083-.095.106-.154s.032-.122.027-.185c.004-.063-.005-.126-.028-.185s-.058-.112-.104-.155a.6003.6003 0 00-.407-.117H.691v.911zm1.079 1.332c.05-.044.089-.098.115-.159s.037-.128.032-.194a.4394.4394 0 00-.151-.357.6415.6415 0 00-.423-.126H.691v.955h.661c.149.009.296-.034.417-.12zM5.409 26.051l-.81-1.358h-.304v1.358h-.696v-3.474h1.318c.332-.023.661.082.918.295.184.189.295.437.313.701s-.058.525-.215.737a1.07 1.07 0 01-.629.353l.862 1.388h-.757zM4.295 24.22h.57c.396 0 .593-.175.593-.526.004-.072-.007-.143-.032-.21s-.064-.128-.114-.18a.6178.6178 0 00-.448-.141h-.576l.007 1.057zM9.215 25.352H7.827l-.245.699h-.73l1.274-3.435h.789l1.269 3.435h-.73l-.24-.699zm-.186-.526l-.507-1.466-.507 1.466h1.014zM13.98 26.051h-.691l-1.55-2.362v2.362h-.69v-3.474h.69l1.55 2.376v-2.376h.691v3.474zM17.925 25.219a1.501 1.501 0 01-.625.613c-.301.153-.635.228-.972.219h-1.231v-3.474h1.231c.336-.009.67.065.972.214.265.134.483.345.625.606a2.0285 2.0285 0 010 1.822zm-.791-.083c.197-.231.306-.525.306-.829s-.108-.598-.306-.829a1.1962 1.1962 0 00-.865-.295h-.48v2.249h.48c.316.02.627-.086.865-.295zM9.648 3.254s8.923 3.382 8.734 8.277v8.278s-8.916-3.384-8.73-8.278l-.003-8.277zM26.331 17.871A12.1982 12.1982 0 0132 15.773v-2.591c-2.345.907-4.333 2.552-5.669 4.689z"/><path fill="var(--color1, #afb1b8)" d="M25.318 18.652c1.379-2.788 3.77-4.94 6.682-6.013V5.172S19.293 9.99 19.561 16.96v11.786s.566-.215 1.457-.619c0-.377 0-.757.041-1.139.263-3.236 1.795-6.234 4.259-8.336z"/><path fill="var(--color1, #afb1b8)" d="M24.11 23.03c.067-.817.216-1.626.445-2.413a11.4105 11.4105 0 00-2.657 6.44c-.019.224-.029.448-.034.679.722-.348 1.562-.782 2.444-1.293a12.2513 12.2513 0 01-.198-3.413zM24.615 23.073a11.682 11.682 0 00.157 3.09c3.472-2.086 7.373-5.308 7.223-9.203v-.339a11.378 11.378 0 00-6.606 3.099 11.6788 11.6788 0 00-.774 3.353z"/></symbol><symbol id="icon-logo-6" viewBox="0 0 32 32"><path fill="var(--color1, #afb1b8)" d="M16.086 15.408a1.174 1.174 0 01-.205-.74v-1.072c0-.329.068-.579.204-.749s.37-.256.701-.255c.311 0 .532.073.663.218.142.186.212.413.196.641v.252h-.557v-.255c.002-.084-.003-.167-.016-.25a.242.242 0 00-.08-.148.3007.3007 0 00-.202-.058.319.319 0 00-.212.061.2857.2857 0 00-.092.164c-.016.088-.023.176-.022.265v1.301a.72.72 0 00.071.365c.028.039.066.069.111.089s.095.026.144.021c.071.006.142-.016.197-.059a.2687.2687 0 00.083-.158c.013-.086.019-.174.017-.261v-.264h.557v.241c.016.239-.052.476-.192.674-.128.159-.346.239-.666.239s-.562-.085-.7-.262zM18.404 15.419c-.141-.167-.211-.41-.211-.732v-1.128c0-.319.07-.56.211-.723s.376-.245.705-.244c.327 0 .561.081.702.244s.212.405.212.723v1.128c0 .319-.071.563-.214.731s-.376.252-.699.252c-.324 0-.564-.085-.705-.251zm.964-.271c.05-.105.073-.219.067-.334v-1.381a.6607.6607 0 00-.066-.327c-.028-.039-.068-.071-.114-.09s-.097-.026-.147-.019c-.05-.007-.101 0-.147.019s-.086.05-.114.09a.6424.6424 0 00-.067.327v1.388c-.007.115.016.229.067.334.032.035.073.063.117.083s.094.029.143.029c.049 0 .098-.01.143-.029s.085-.048.117-.083v-.007zM20.692 12.624h.599l.451 2.081.461-2.081h.583l.059 3.004h-.431l-.046-2.088-.445 2.088h-.346l-.461-2.095-.043 2.095h-.436l.054-3.004zM23.517 12.624h.933c.538 0 .807.284.807.853 0 .545-.283.817-.849.816h-.318v1.335h-.576l.003-3.004zm.797 1.284c.057.007.115.002.169-.014s.105-.044.147-.08a.5237.5237 0 00.083-.339 1.006 1.006 0 00-.028-.273.2282.2282 0 00-.115-.142.551.551 0 00-.257-.048h-.224v.898h.224zM26.088 12.624h.619l.635 3.004h-.537l-.126-.693h-.552l-.129.693h-.545l.635-3.004zm.528 1.964l-.215-1.261-.215 1.261h.431zM27.854 12.624h.403l.772 1.714v-1.714h.478v3.004h-.384l-.777-1.789v1.789h-.494l.001-3.004zM30.628 14.483l-.642-1.854h.54l.392 1.191.368-1.191h.529l-.634 1.854v1.145h-.553v-1.145zM16.976 16.942v.157h-.47v1.221h-.197v-1.221h-.472v-.157h1.14zM18.45 18.32h-.152a.0664.0664 0 01-.043-.013.0656.0656 0 01-.025-.032l-.136-.327h-.652l-.136.327a.0913.0913 0 01-.021.037.0647.0647 0 01-.043.013h-.152l.576-1.378h.201l.583 1.372zm-.954-.512h.544l-.23-.561a1.1637 1.1637 0 01-.043-.13c-.008.026-.015.051-.022.073l-.021.058-.228.56zM19.443 18.184c.036.002.072.002.108 0a.7076.7076 0 00.092-.016.793.793 0 00.083-.025c.025-.01.051-.022.077-.034v-.31h-.23c-.006 0-.011 0-.017-.002s-.01-.005-.014-.009c-.004-.003-.007-.007-.009-.011s-.003-.009-.003-.014v-.106h.447v.528c-.037.025-.075.047-.115.065a.8852.8852 0 01-.272.075c-.056.006-.112.009-.168.009a.8166.8166 0 01-.29-.051.6938.6938 0 01-.23-.144.672.672 0 01-.149-.218.756.756 0 01-.053-.286.7688.7688 0 01.052-.288c.033-.082.084-.156.149-.218s.144-.111.23-.143a.8755.8755 0 01.309-.051c.054 0 .107.004.16.012a.706.706 0 01.137.035c.04.014.079.033.115.055.035.022.069.046.1.072l-.055.085c-.004.008-.011.014-.019.019s-.017.007-.026.007a.0663.0663 0 01-.036-.011.7306.7306 0 01-.056-.033.4538.4538 0 00-.077-.037.7595.7595 0 00-.106-.031.8896.8896 0 00-.146-.012.621.621 0 00-.222.038.4776.4776 0 00-.169.109.4881.4881 0 00-.107.171.6948.6948 0 000 .459c.025.065.064.124.115.173.047.047.105.084.168.109.073.024.151.033.228.027zM21.28 18.162h.629v.157h-.822v-1.378h.197l-.005 1.221zM22.564 18.319h-.197v-1.378h.197v1.378zM23.297 16.948c.012.006.022.015.03.025l.842 1.039a.4005.4005 0 010-.049v-1.027h.172v1.383h-.099a.0916.0916 0 01-.043-.008.113.113 0 01-.031-.026l-.841-1.037v1.072h-.165v-1.378h.103c.011 0 .022.002.032.007zM25.791 16.942v.152h-.698v.455h.566v.146h-.566v.47h.698v.152h-.901v-1.375h.901zM5.143 8.433l8.75 2.352v8.242l-8.75-2.351V8.433zm-.561-.703v9.346l9.871 2.654v-9.345L4.582 7.73z"/><path fill="var(--color1, #afb1b8)" d="M9.872 24.068L0 21.412v-9.345l9.872 2.655v9.346z"/><path fill="var(--color1, #afb1b8)" d="M4.745 8.327l8.636 2.322-3.672 3.478-8.637-2.324 3.674-3.477zm-.163-.597L0 12.067l9.872 2.655 4.581-4.337L4.582 7.73zM10.427 23.543l4.025-3.811-4.025-1.083v4.895z"/></symbol><symbol id="icon-smartphone" viewBox="0 0 32 32"><path fill="var(--color2, #757575)" d="M23 0H9C7.346 0 6 1.346 6 3v26c0 1.654 1.346 3 3 3h14c1.654 0 3-1.346 3-3V3c0-1.654-1.346-3-3-3zM9 2h14c.552 0 1 .448 1 1v21H8V3c0-.552.448-1 1-1zm14 28H9c-.552 0-1-.448-1-1v-3h16v3c0 .552-.448 1-1 1z"/><path fill="var(--color2, #757575)" d="M10.707 27.478c.391.365.391.956 0 1.321s-1.024.365-1.414 0c-.391-.365-.391-.956 0-1.321s1.024-.365 1.414 0z"/></symbol><symbol id="icon-twitter" viewBox="0 0 32 32"><path fill="var(--color1, #afb1b8)" d="M32 6.078c-1.19.522-2.458.868-3.78 1.036 1.36-.812 2.398-2.088 2.886-3.626-1.268.756-2.668 1.29-4.16 1.588C25.742 3.794 24.026 3 22.154 3c-3.632 0-6.556 2.948-6.556 6.562 0 .52.044 1.02.152 1.496-5.454-.266-10.28-2.88-13.522-6.862-.566.982-.898 2.106-.898 3.316 0 2.272 1.17 4.286 2.914 5.452-1.054-.02-2.088-.326-2.964-.808v.072c0 3.188 2.274 5.836 5.256 6.446-.534.146-1.116.216-1.72.216-.42 0-.844-.024-1.242-.112.85 2.598 3.262 4.508 6.13 4.57-2.232 1.746-5.066 2.798-8.134 2.798-.538 0-1.054-.024-1.57-.09C2.906 27.93 6.35 29 10.064 29c12.072 0 18.672-10 18.672-18.668 0-.29-.01-.57-.024-.848C30.014 8.56 31.108 7.406 32 6.078z"/></symbol><symbol id="icon-antenna" viewBox="0 0 32 32"><path fill="var(--color3, #212121)" d="M30.773 22.098l-8.443-8.505.937-4.615c.242.094.499.144.758.146h.006c1.192.014 2.17-.941 2.184-2.133s-.941-2.17-2.133-2.184c-1.192-.014-2.17.941-2.184 2.133-.003.255.039.509.125.749l-4.96.605L8.972.161a.534.534 0 00-.377-.16.5319.5319 0 00-.373.155L6.709 1.66a.5335.5335 0 000 .754l.814.826C4.37 9.038 5.394 16.218 10.042 20.903c.043.041.092.074.146.098-.034.18-.051.364-.052.547v6.187h-6.4c-1.472.002-2.665 1.195-2.667 2.667v1.067c0 .295.239.533.533.533h24.533c.295 0 .533-.239.533-.533v-1.067c-.002-1.472-1.195-2.665-2.667-2.667h-6.4v-2.742c1.003.21 2.024.317 3.049.32a14.854 14.854 0 007.04-1.783l.818.823a.534.534 0 00.377.16c.14-.001.274-.056.373-.155l1.512-1.504a.5335.5335 0 000-.754zM23.28 6.233c.418-.415 1.093-.414 1.508.004s.414 1.093-.004 1.508c-.2.199-.47.31-.752.31h-.003c-.589-.003-1.064-.483-1.061-1.072.001-.282.114-.552.314-.751h-.002zm-1.256 3.505l-.598 2.946-1.175-1.182 1.774-1.763zm-.606-.902l-1.92 1.909-1.485-1.493 3.405-.415zM24.004 28.8c.884 0 1.6.716 1.6 1.6v.533H2.137V30.4c0-.884.716-1.6 1.6-1.6h20.267zm-7.467-2.133v1.067h-5.333v-1.067h5.333zM11.204 25.6v-4.053c0-1.294 1.196-2.347 2.667-2.347s2.667 1.053 2.667 2.347V25.6h-5.333zm6.4-1.696v-2.357c0-1.882-1.675-3.413-3.733-3.413a3.8003 3.8003 0 00-3.281 1.786C6.532 15.646 5.619 9.275 8.311 4.033l18.602 18.708a13.8184 13.8184 0 01-9.309 1.163zm11.289-.684L7.836 2.039l.755-.752 7.935 7.98c.004 0 .006.007.01.01l13.115 13.191-.757.752z"/><path fill="var(--color4, #2196f3)" d="M13.876 20.267h-.005c-.884-.001-1.601.714-1.602 1.598s.714 1.601 1.598 1.602h.005c.884.001 1.601-.714 1.602-1.598s-.714-1.601-1.598-1.602zm.373 1.978c-.1.1-.236.156-.378.155a.5328.5328 0 01-.53-.536.5325.5325 0 01.53-.53c.295.002.532.241.531.536a.5325.5325 0 01-.157.375h.005z"/></symbol><symbol id="icon-astronaut" viewBox="0 0 32 32"><path fill="var(--color4, #2196f3)" d="M31.974 4.524a.5343.5343 0 00-.43-.363l-1.91-.278-.855-1.731c-.179-.365-.777-.365-.956 0l-.855 1.731-1.91.278a.5354.5354 0 00-.431.363.5342.5342 0 00.135.547l1.383 1.348-.326 1.903c-.034.2.048.402.212.522.166.121.382.135.562.04l1.709-.899 1.709.899c.078.041.164.061.249.061.11 0 .221-.034.314-.102a.5347.5347 0 00.212-.522l-.326-1.903 1.383-1.348a.5363.5363 0 00.135-.547zm-2.463 1.327a.5335.5335 0 00-.153.472l.191 1.114-1-.526c-.078-.041-.163-.061-.249-.061s-.17.02-.249.061l-1.001.526.191-1.114a.5344.5344 0 00-.153-.472l-.81-.789 1.119-.163a.5324.5324 0 00.402-.292l.5-1.013.5 1.013c.078.157.228.267.402.292l1.119.163-.809.789zM26.134 20.522h-1.067v1.067h1.067v-1.067zM26.134 22.656h-1.067v1.067h1.067v-1.067zM27.2 21.589h-1.067v1.067H27.2v-1.067zM25.067 21.589H24v1.067h1.067v-1.067zM22.4 26.389h-1.067v1.067H22.4v-1.067zM22.4 28.522h-1.067v1.067H22.4v-1.067zM23.467 27.456H22.4v1.067h1.067v-1.067zM21.333 27.456h-1.067v1.067h1.067v-1.067zM16 24.256h-1.067v1.067H16v-1.067zM16 26.389h-1.067v1.067H16v-1.067zM17.067 25.322H16v1.067h1.067v-1.067zM14.933 25.322h-1.067v1.067h1.067v-1.067zM5.867 6.122H4.8v1.067h1.067V6.122zM5.867 8.255H4.8v1.067h1.067V8.255z"/><path fill="var(--color4, #2196f3)" d="M6.933 7.189H5.866v1.067h1.067V7.189zM4.8 7.189H3.733v1.067H4.8V7.189z"/><path fill="var(--color3, #212121)" d="M24.715 14.159c-.287-.388-.709-.637-1.188-.705-.481-.068-.956.058-1.34.352l-1.252.96-1.898 1.417-1.358-.541c2.421-1.086 4.114-3.508 4.114-6.32 0-3.823-3.123-6.933-6.961-6.933s-6.961 3.11-6.961 6.933c0 1.386.414 2.674 1.12 3.758l-2.764-.024h-.005c-.009 0-.015.004-.023.005a.5147.5147 0 00-.155.031c-.013.005-.026.008-.038.013-.006.003-.013.003-.019.006l-3.233 1.596c-.001 0-.001 0-.001.001l-1.893.911a.3967.3967 0 00-.063.035c-.755.502-1.012 1.489-.598 2.295.22.429.595.745 1.056.889.178.055.359.083.539.083.29 0 .577-.071.839-.211l1.388-.738 2.264-1.169 1.357-.008L2.2 22.211c-.001.001-.001.001-.002.001L.859 23.545c-.316.315-.49.732-.49 1.178s.174.863.49 1.179c.325.323.752.485 1.179.485s.854-.162 1.18-.485l1.314-1.309 1.741-1.3.901.897-1.762 1.754c0 .001-.001.001-.002.001l-1.339 1.333c-.316.315-.49.732-.49 1.178s.174.863.49 1.179c.325.323.753.485 1.18.485s.855-.162 1.18-.485l3.482-3.467c.001-.001.001-.001.001-.002l1.01-1-.004-.004c.006-.006.015-.009.022-.015l5.166-5.658 3.471.494c.025.004.05.005.075.005.065 0 .127-.015.187-.038.018-.006.033-.015.05-.023.019-.01.039-.015.058-.027l3.213-2.133c.012-.008.018-.021.029-.029.013-.01.029-.014.041-.026l1.271-1.191c.662-.62.753-1.635.212-2.362zM2.13 17.77a.714.714 0 01-.558.052.7167.7167 0 01-.427-.358.714.714 0 01.214-.902l1.314-.632.449 1.313-.992.527zm3.498-1.828l-1.548.8-.439-1.283 2.027-1.001-.04 1.484zm15.099-6.62c0 .918-.219 1.785-.599 2.559l-4.181-1.899c-.044-.573-.341-1.075-.788-1.388l1.464-4.86c2.378.756 4.105 2.974 4.105 5.588zm-11.789 0c0-3.235 2.644-5.867 5.894-5.867.253 0 .5.021.745.052l-1.432 4.754c-.019-.001-.037-.006-.057-.006-1.033 0-1.873.837-1.873 1.867s.84 1.867 1.873 1.867c.694 0 1.294-.383 1.618-.945l3.862 1.755c-1.075 1.446-2.795 2.39-4.737 2.39-3.25 0-5.894-2.632-5.894-5.867zm5.956.8c0 .441-.362.8-.806.8s-.806-.359-.806-.8c0-.441.362-.8.806-.8s.806.359.806.8zM2.465 25.146c-.236.234-.619.234-.854.001-.114-.114-.176-.263-.176-.423s.062-.309.176-.421l.962-.959.851.848-.959.955zm3.214 3.734c-.236.234-.619.235-.855.001-.114-.114-.176-.263-.176-.423s.062-.309.176-.421l.963-.959.852.848-.96.955zm3.481-3.469c-.001 0-.001 0-.002.001l-1.765 1.76-.852-.848 1.763-1.755s.001-.001.002-.001c.04-.04.065-.088.09-.135.007-.014.02-.026.026-.04.017-.041.019-.085.026-.129.003-.025.014-.047.014-.073 0-.036-.013-.07-.02-.106-.006-.032-.006-.065-.019-.095-.02-.05-.055-.094-.091-.138-.01-.012-.014-.027-.025-.038h-.001c-.001 0-.001-.002-.001-.002l-1.607-1.6c-.017-.017-.039-.024-.058-.038a.5067.5067 0 00-.087-.058c-.03-.015-.061-.024-.093-.033a.5073.5073 0 00-.103-.02.5002.5002 0 00-.095.005.5307.5307 0 00-.104.02c-.034.011-.063.027-.094.045-.02.011-.042.015-.061.029L4.23 23.486l-.901-.897 2.399-2.386 4.361 4.289-.928.919zm6.819-7.017c-.015-.002-.03.004-.045.003a.5556.5556 0 00-.115.007.5364.5364 0 00-.088.021.5413.5413 0 00-.097.047.4923.4923 0 00-.083.061c-.013.011-.028.017-.04.029l-4.698 5.146-4.328-4.257 2.833-2.818c.209-.208.21-.546.002-.755a.5314.5314 0 00-.381-.156v-.001l-2.219.013.028-1.607 3.104.027c1.265 1.294 3.029 2.101 4.981 2.101.437 0 .864-.045 1.279-.123.04.032.079.065.13.085l2.41.96.152.758.178.885-3.003-.427zm4.041.178l-.313-1.558 1.446-1.08.947 1.257-2.08 1.381zm3.754-2.831l-.838.785-.931-1.236.831-.637c.155-.119.351-.168.543-.143.193.027.364.128.48.284.217.292.18.699-.085.947z"/><path fill="var(--color3, #212121)" d="M13.602 18.544l-2.143-2.133c-.207-.207-.545-.207-.753 0l-2.142 2.133c-.1.101-.157.236-.157.378s.056.278.157.378l2.142 2.133c.104.103.241.155.377.155s.273-.052.376-.155l2.143-2.133c.1-.1.157-.236.157-.378s-.057-.278-.157-.378zm-2.519 1.759l-1.387-1.381 1.387-1.381 1.387 1.381-1.387 1.381zM17.164 5.071l-.258 1.036c.071.018 1.738.452 1.738 2.149h1.067c0-2.017-1.666-2.965-2.547-3.185zM19.711 9.322h-1.067v1.067h1.067V9.322z"/></symbol><symbol id="icon-clock" viewBox="0 0 32 32"><path fill="var(--color3, #212121)" d="M31.297 15.301C31.295 6.849 24.442-.002 15.989 0S.686 6.855.688 15.308c.001 6.658 4.307 12.551 10.649 14.576.061.019.124.029.187.029.121 0 .239-.032.343-.094.135-.08.236-.207.283-.356l3.865-12.25c1.057-.005 1.909-.866 1.903-1.923s-.866-1.909-1.923-1.903c-.284.001-.565.067-.82.191l-5.106-5.107a.6372.6372 0 00-.902.016.637.637 0 000 .886l5.103 5.109c-.392.799-.168 1.764.536 2.309l-3.683 11.673C3.845 25.783.119 17.71 2.8 10.432S13.554-.572 20.832 2.109c7.278 2.681 11.004 10.754 8.324 18.032a14.0422 14.0422 0 01-7.462 7.973l-.398-1.874a.638.638 0 00-.756-.492.6348.6348 0 00-.292.148l-3.837 3.426a.6366.6366 0 00-.052.9c.076.085.174.149.283.184l4.899 1.563c.335.108.694-.077.802-.412.034-.106.04-.219.017-.328l-.391-1.839c5.664-2.388 9.342-7.942 9.329-14.089zm-15.305-.637c.352 0 .638.286.638.638s-.286.638-.638.638c-.352 0-.638-.285-.638-.638s.285-.638.638-.638zm2.101 14.864l2.184-1.948.603 2.84-2.787-.892z"/><path fill="var(--color4, #2196f3)" d="M15.354 3.185V4.46c0 .352.285.638.638.638s.638-.285.638-.638V3.185c0-.352-.286-.638-.638-.638s-.638.286-.638.638zM3.876 14.664c-.352 0-.638.286-.638.638s.285.638.638.638h1.275c.352 0 .638-.285.638-.638s-.285-.638-.638-.638H3.876zM28.108 15.939c.352 0 .638-.285.638-.638s-.285-.638-.638-.638h-1.275c-.352 0-.638.286-.638.638s.286.638.638.638h1.275z"/></symbol><symbol id="icon-diagram" viewBox="0 0 32 32"><path fill="var(--color4, #2196f3)" d="M14.926 14.965h1.066v4.798h-1.066v-4.797zM19.19 17.097h1.066v2.665H19.19v-2.665zM10.661 18.696h1.066v1.066h-1.066v-1.066zM7.463 18.163h1.066v1.599H7.463v-1.599z"/><path fill="var(--color3, #212121)" d="M1.599 28.291h25.587c.883 0 1.599-.716 1.599-1.599V24.56c0-.883-.716-1.599-1.599-1.599h-.533V9.668L29.681 6.8c.703.346 1.553.136 2.013-.499s.396-1.508-.152-2.068-1.42-.644-2.065-.198a1.609 1.609 0 00-.542 2.002L26.654 8.2V6.97c0-.883-.716-1.599-1.599-1.599H3.733c-.883 0-1.599.716-1.599 1.599v15.992h-.533c-.883 0-1.599.716-1.599 1.599v2.132c0 .883.716 1.599 1.599 1.599zM30.384 4.837c.294 0 .533.239.533.533s-.239.533-.533.533c-.294 0-.533-.239-.533-.533s.239-.533.533-.533zM3.198 6.969c0-.294.239-.533.533-.533h21.322c.294 0 .533.239.533.533v2.239l-1.066 1.013V8.035c0-.294-.239-.533-.533-.533H4.797c-.294 0-.533.239-.533.533v13.326c0 .294.239.533.533.533h19.19c.294 0 .533-.239.533-.533v-9.674l1.066-1.01v12.284H3.198V6.969zm4.798 6.93c-.721-.002-1.354.478-1.546 1.174s.105 1.433.725 1.801c.62.368 1.41.276 1.928-.226l1.853.93a.532.532 0 00.636-.123l3.939-4.431 3.872 2.901a.533.533 0 00.686-.039l3.365-3.188v8.131H5.33V8.569h18.124v2.66l-3.771 3.572-3.904-2.927a.5332.5332 0 00-.718.072l-3.993 4.493-1.493-.746c.011-.064.018-.129.02-.193 0-.883-.716-1.599-1.599-1.599zm.533 1.599c0 .294-.239.533-.533.533s-.533-.239-.533-.533c0-.294.239-.533.533-.533s.533.239.533.533zm3.198 8.528h5.331v.533c0 .294-.239.533-.533.533h-4.264a.5335.5335 0 01-.533-.533v-.533zm-10.661.534c0-.294.239-.533.533-.533h9.062v.533c0 .883.716 1.599 1.599 1.599h4.264c.883 0 1.599-.716 1.599-1.599v-.533h9.062c.294 0 .533.239.533.533v2.132c0 .294-.239.533-.533.533H1.598a.5335.5335 0 01-.533-.533V24.56z"/></symbol><symbol id="icon-mail" viewBox="0 0 32 32"><path fill="var(--color2, #757575)" d="M29 4H3C1.346 4 0 5.346 0 7v18c0 1.654 1.346 3 3 3h26c1.654 0 3-1.346 3-3V7c0-1.654-1.346-3-3-3zm0 2c.136 0 .265.028.383.077L16 17.676 2.617 6.077A.9956.9956 0 013 6h26zm0 20H3c-.552 0-1-.448-1-1V8.19l13.345 11.565c.188.163.422.244.655.244s.467-.081.655-.244L30 8.19V25c0 .552-.448 1-1 1z"/></symbol><symbol id="icon-facebook" viewBox="0 0 32 32"><path fill="var(--color1, #afb1b8)" d="M21.329 5.313h2.921V.225C23.746.156 22.013 0 19.994 0c-4.212 0-7.097 2.649-7.097 7.519V12H8.249v5.688h4.648V32h5.699V17.689h4.46l.708-5.688h-5.169V8.082c.001-1.644.444-2.769 2.735-2.769z"/></symbol><symbol id="icon-instagram" viewBox="0 0 32 32"><path fill="var(--color1, #afb1b8)" d="M31.969 9.408c-.075-1.7-.35-2.869-.744-3.882-.406-1.075-1.031-2.038-1.85-2.838A7.8671 7.8671 0 0026.543.844C25.524.45 24.361.175 22.661.1 20.948.019 20.404 0 16.06 0s-4.888.019-6.595.094c-1.7.075-2.869.35-3.882.744-1.075.406-2.038 1.031-2.838 1.85-.813.8-1.444 1.769-1.844 2.832C.507 6.539.232 7.702.157 9.402c-.081 1.713-.1 2.257-.1 6.601s.019 4.888.094 6.595c.075 1.7.35 2.869.744 3.882.406 1.075 1.038 2.038 1.85 2.838.8.813 1.769 1.444 2.832 1.844 1.019.394 2.182.669 3.882.744 1.706.075 2.25.094 6.595.094s4.888-.019 6.595-.094c1.7-.075 2.869-.35 3.882-.744a8.1843 8.1843 0 004.682-4.682c.394-1.019.669-2.182.744-3.882.075-1.707.094-2.251.094-6.595s-.006-4.888-.081-6.595zm-2.882 13.065c-.069 1.563-.331 2.407-.55 2.969a5.3097 5.3097 0 01-3.038 3.038c-.563.219-1.413.481-2.969.55-1.688.075-2.194.094-6.464.094s-4.782-.019-6.464-.094c-1.563-.069-2.407-.331-2.969-.55-.694-.256-1.325-.663-1.838-1.194-.531-.519-.938-1.144-1.194-1.838-.219-.563-.481-1.413-.55-2.969-.075-1.688-.094-2.194-.094-6.464s.019-4.782.094-6.464c.069-1.563.331-2.407.55-2.969.256-.694.663-1.325 1.2-1.838.519-.531 1.144-.938 1.838-1.194.563-.219 1.413-.481 2.969-.55 1.688-.075 2.194-.094 6.464-.094 4.276 0 4.782.019 6.464.094 1.563.069 2.407.331 2.969.55.694.256 1.325.662 1.838 1.194.531.519.938 1.144 1.194 1.838.219.563.481 1.413.55 2.969.075 1.688.094 2.194.094 6.464s-.019 4.77-.094 6.458z"/><path fill="var(--color1, #afb1b8)" d="M16.059 7.783c-4.538 0-8.22 3.682-8.22 8.22s3.682 8.22 8.22 8.22 8.22-3.682 8.22-8.22-3.682-8.22-8.22-8.22zm0 13.552c-2.944 0-5.332-2.388-5.332-5.332s2.388-5.332 5.332-5.332 5.332 2.388 5.332 5.332-2.388 5.332-5.332 5.332zM26.524 7.458c0 1.06-.859 1.919-1.919 1.919s-1.919-.859-1.919-1.919.859-1.919 1.919-1.919 1.919.859 1.919 1.919z"/></symbol><symbol id="icon-linkedin" viewBox="0 0 32 32"><path fill="var(--color1, #afb1b8)" d="M31.992 32v-.001H32V20.263c0-5.741-1.236-10.164-7.948-10.164-3.227 0-5.392 1.771-6.276 3.449h-.093v-2.913h-6.364v21.364h6.627V21.42c0-2.785.528-5.479 3.977-5.479 3.399 0 3.449 3.179 3.449 5.657v10.401h6.62zM.528 10.636h6.635V32H.528V10.636zM3.843 0C1.722 0 0 1.721 0 3.843s1.721 3.879 3.843 3.879c2.121 0 3.843-1.757 3.843-3.879C7.685 1.722 5.963 0 3.843 0z"/></symbol><symbol id="icon-logo-1" viewBox="0 0 32 32"><path fill="var(--color1, #afb1b8)" d="M5.44 0l4.677 4.428h13.046v12.351l4.677 4.428V.001H5.44z"/><path fill="var(--color1, #afb1b8)" d="M1.6 4.241v20.6h21.76v-8.188L10.255 4.247 1.6 4.242zm17.615 17.587H5.043V7.974h1.002V20.89h13.17v.938zM7.866 28.662l.523-1.078h.438l-.762 1.438v.837h-.397v-.837l-.764-1.438h.439l.523 1.078zm2.247.667h-.881l-.184.53h-.411l.859-2.275h.355l.861 2.275H10.3l-.186-.53zm-.77-.319h.659l-.33-.944-.33.944zm2.328.234c0-.105.029-.202.086-.289.057-.089.17-.193.339-.314-.088-.111-.151-.206-.186-.284s-.052-.154-.052-.227c0-.178.054-.319.162-.422s.254-.156.438-.156c.166 0 .301.049.406.147.106.097.159.217.159.361a.499.499 0 01-.072.262c-.048.079-.127.158-.236.238l-.155.113.439.519c.064-.125.095-.264.095-.417h.33c0 .28-.066.51-.197.689l.334.395h-.441l-.128-.152c-.162.122-.356.183-.581.183s-.405-.059-.541-.178c-.134-.12-.202-.276-.202-.467zm.753.343c.128 0 .248-.043.359-.128l-.497-.586-.048.034c-.125.095-.188.203-.188.325 0 .105.034.191.102.256s.158.098.272.098zm-.209-1.466c0 .087.054.197.161.33l.173-.119.048-.039c.065-.057.097-.131.097-.22 0-.059-.022-.11-.067-.152-.045-.043-.102-.064-.17-.064-.074 0-.133.025-.177.075s-.066.113-.066.189zm4.133.997c-.023.243-.113.432-.269.569-.156.135-.364.203-.623.203-.181 0-.341-.043-.48-.128-.137-.086-.244-.209-.319-.367s-.114-.342-.117-.552v-.212c0-.215.038-.404.114-.567s.185-.29.327-.378c.143-.088.307-.133.494-.133.251 0 .453.068.606.205s.242.329.267.578h-.394c-.019-.164-.067-.281-.144-.353-.076-.073-.188-.109-.336-.109-.172 0-.304.063-.397.189-.092.125-.139.309-.141.552v.202c0 .246.044.433.131.563s.218.194.387.194c.155 0 .272-.035.35-.105s.128-.186.148-.348h.394zm2.17-.338c0 .223-.039.419-.116.588-.077.168-.188.297-.331.388-.143.09-.307.134-.494.134-.184 0-.349-.045-.494-.134-.144-.091-.255-.219-.334-.386-.078-.167-.118-.359-.119-.576v-.128c0-.222.039-.418.117-.588.079-.17.19-.299.333-.389.144-.091.308-.136.494-.136s.349.045.492.134c.144.088.255.217.333.384s.118.361.119.583v.127zm-.396-.118c0-.252-.048-.445-.144-.58-.095-.134-.23-.202-.405-.202-.171 0-.305.067-.402.202-.096.133-.145.322-.147.567v.131c0 .25.048.443.145.58.098.136.233.205.406.205.175 0 .309-.067.403-.2.095-.133.142-.328.142-.584v-.119z"/></symbol></defs></svg>